<svg width="96" height="96" viewBox="0 0 96 96" fill="none" xmlns="http://www.w3.org/2000/svg">
<rect width="96" height="96" rx="24" fill="#0077FF"/>
<path d="M65 39.5C65 35.9084 62.0916 33 58.5 33C54.9084 33 52 35.9084 52 39.5C52 43.0916 54.9084 46 58.5 46C62.0916 46 65 43.0916 65 39.5ZM68 39.5C68 44.7484 63.7484 49 58.5 49C53.2516 49 49 44.7484 49 39.5C49 34.2516 53.2516 30 58.5 30C63.7484 30 68 34.2516 68 39.5ZM45.5 61.0714C45.5 63.0034 45.4969 63 46.6471 63H71.3529C72.5031 63 72.5 63.0034 72.5 61.0714C72.5 56.5654 66.338 54 59 54C51.662 54 45.5 56.5654 45.5 61.0714ZM59 51C67.8384 51 75.5 54.1897 75.5 61.0714C75.5 64.6037 74.2224 66 71.3529 66H46.6471C43.7776 66 42.5 64.6037 42.5 61.0714C42.5 54.1897 50.1616 51 59 51ZM31.5 34C32.3284 34 33 34.6716 33 35.5V44H41.5C42.3284 44 43 44.6716 43 45.5C43 46.3284 42.3284 47 41.5 47H33V55.5C33 56.3284 32.3284 57 31.5 57C30.6716 57 30 56.3284 30 55.5V47H21.5C20.6716 47 20 46.3284 20 45.5C20 44.6716 20.6716 44 21.5 44H30V35.5C30 34.6716 30.6716 34 31.5 34Z" fill="white"/>
</svg>
