<svg width="96" height="96" viewBox="0 0 96 96" fill="none" xmlns="http://www.w3.org/2000/svg">
<rect width="96" height="96" rx="24" fill="#EDF0F3"/>
<path d="M48 51C55.0746 51 61 53.8537 61 60C61 63.0645 59.1452 65 56.625 65H39.375C36.7593 65 35 63.5722 35 60.5C35 53.973 40.8482 51 48 51ZM33.557 51.001C34.3206 51.0291 34.9519 51.634 34.9974 52.4124C35.0458 53.2394 34.4146 53.9491 33.5876 53.9974C29.7049 54.2246 27 55.9845 27 59C27 59.75 27.3333 60 28 60H30.5L30.6445 60.0069C31.4051 60.0796 32 60.7203 32 61.5C32 62.3284 31.3284 63 30.5 63H28L27.804 62.9962C25.7239 62.9155 24 61.5455 24 59C24 54.0077 28.1453 51.3107 33.4124 51.0026L33.557 51.001ZM62.443 51.001L62.5876 51.0026C67.8548 51.3107 72 54.0077 72 59C72 61.5455 70.2761 62.9155 68.1961 62.9962L68 63H65.5C64.6716 63 64 62.3284 64 61.5C64 60.7203 64.5949 60.0796 65.3556 60.0069L65.5 60H68C68.6667 60 69 59.75 69 59C69 55.9845 66.2951 54.2246 62.4124 53.9974C61.5854 53.9491 60.9542 53.2394 61.0026 52.4124C61.0481 51.634 61.6794 51.0291 62.443 51.001ZM48 54C42.2901 54 38 56.1809 38 60.5C38 61.6515 38.2454 61.9507 39.1106 61.9941L39.375 62H56.625C57.4591 62 58 61.4355 58 60C58 56.1078 53.6234 54 48 54ZM35.9997 34C36.2116 34 36.4225 34.0095 36.6321 34.0283C37.4572 34.1024 38.066 34.8313 37.9919 35.6564C37.9178 36.4815 37.1889 37.0903 36.3638 37.0163C36.2434 37.0054 36.122 37 35.9997 37C33.7905 37 31.9997 38.7909 31.9997 41C31.9997 43.2091 33.7905 45 35.9997 45C36.2399 45 36.4768 44.979 36.7088 44.9376C36.8329 44.9155 36.9555 44.8875 37.0764 44.8538L37.2349 44.816C37.9865 44.6784 38.7336 45.1326 38.9464 45.8827C39.1724 46.6797 38.7095 47.509 37.9125 47.735L37.5606 47.825L37.2358 47.8909C36.8301 47.9633 36.4168 48 35.9997 48C32.1337 48 28.9997 44.866 28.9997 41C28.9997 37.134 32.1337 34 35.9997 34ZM60.0037 34C63.8696 34 67.0037 37.134 67.0037 41C67.0037 44.866 63.8696 48 60.0037 48C59.5865 48 59.1733 47.9633 58.7676 47.8909L58.4427 47.825L58.0908 47.735C57.2938 47.509 56.8309 46.6797 57.0569 45.8827C57.2697 45.1326 58.0168 44.6784 58.7684 44.816L58.927 44.8538C59.0478 44.8875 59.1704 44.9155 59.2945 44.9376C59.5265 44.979 59.7634 45 60.0037 45C62.2128 45 64.0037 43.2091 64.0037 41C64.0037 38.7909 62.2128 37 60.0037 37C59.8814 37 59.7599 37.0054 59.6395 37.0163C58.8144 37.0903 58.0855 36.4815 58.0114 35.6564C57.9373 34.8313 58.5461 34.1024 59.3712 34.0283C59.5808 34.0095 59.7917 34 60.0037 34ZM48 32C52.4183 32 56 35.5817 56 40C56 44.4183 52.4183 48 48 48C43.5818 48 40 44.4183 40 40C40 35.5817 43.5818 32 48 32ZM48 35C45.2386 35 43 37.2386 43 40C43 42.7614 45.2386 45 48 45C50.7615 45 53 42.7614 53 40C53 37.2386 50.7615 35 48 35Z" fill="#050B15"/>
</svg>
