<svg width="96" height="96" viewBox="0 0 96 96" fill="none" xmlns="http://www.w3.org/2000/svg">
<rect width="96" height="96" rx="24" fill="#EDF0F3"/>
<path fill-rule="evenodd" clip-rule="evenodd" d="M53.8159 27.8214C50.443 26.8493 46.8801 26.7381 43.4531 27.4981C40.0261 28.2582 36.8443 29.8651 34.1986 32.1721C31.5529 34.4791 29.5277 37.4125 28.3081 40.7041C27.0886 43.9957 26.7136 47.5405 27.2175 51.0144C27.7213 54.4883 29.088 57.7805 31.1925 60.5899C31.6891 61.253 31.5542 62.1931 30.8912 62.6898C30.2282 63.1864 29.288 63.0515 28.7914 62.3885C26.3863 59.1777 24.8244 55.4152 24.2485 51.445C23.6727 47.4748 24.1012 43.4236 25.495 39.6618C26.8888 35.9 29.2033 32.5475 32.227 29.911C35.2507 27.2745 38.887 25.4379 42.8036 24.5693C46.7201 23.7007 50.792 23.8277 54.6468 24.9388C58.5016 26.0498 62.0164 28.1094 64.8698 30.9293C67.7233 33.7492 69.8244 37.2394 70.981 41.0807C72.1375 44.9221 72.3128 48.9922 71.4906 52.9187C71.3208 53.7296 70.5258 54.2493 69.715 54.0795C68.9041 53.9097 68.3845 53.1147 68.5542 52.3039C69.2737 48.8681 69.1204 45.3069 68.1083 41.9457C67.0963 38.5844 65.2579 35.5305 62.7611 33.0631C60.2643 30.5957 57.1889 28.7936 53.8159 27.8214ZM51.0109 44.0022L69.052 57.5661C69.9645 58.2521 70.2214 59.5113 69.6506 60.5C69.0798 61.4887 67.8608 61.8958 66.8104 61.4485L46.0433 52.6064C43.2799 51.4298 42.1681 48.101 43.6698 45.4999C45.1716 42.8989 48.6102 42.1973 51.0109 44.0022ZM49 46.2679C49.9565 46.8202 50.2843 48.0434 49.732 49C49.1797 49.9566 47.9565 50.2843 47 49.732C46.0434 49.1797 45.7156 47.9566 46.2679 47C46.8202 46.0434 48.0434 45.7156 49 46.2679Z" fill="#050B15"/>
</svg>
