<svg width="96" height="96" viewBox="0 0 96 96" fill="none" xmlns="http://www.w3.org/2000/svg">
<rect width="96" height="96" rx="24" fill="#0077FF"/>
<path fill-rule="evenodd" clip-rule="evenodd" d="M54.2418 59.5H57.2C61.6804 59.5 63.9206 59.5 65.6319 58.6281C67.1372 57.8611 68.3611 56.6372 69.1281 55.1319C70 53.4206 70 51.1804 70 46.7V39.8C70 35.3196 70 33.0794 69.1281 31.3681C68.3611 29.8628 67.1372 28.6389 65.6319 27.8719C63.9206 27 61.6804 27 57.2 27H38.8C34.3196 27 32.0794 27 30.3681 27.8719C28.8628 28.6389 27.6389 29.8628 26.8719 31.3681C26 33.0794 26 35.3196 26 39.8V46.7C26 51.1804 26 53.4206 26.8719 55.1319C27.6389 56.6372 28.8628 57.8611 30.3681 58.6281C32.0794 59.5 34.3196 59.5 38.8 59.5H41.7582L40.7082 66.5H33.5C32.6716 66.5 32 67.1716 32 68C32 68.8284 32.6716 69.5 33.5 69.5H62.5C63.3284 69.5 64 68.8284 64 68C64 67.1716 63.3284 66.5 62.5 66.5H55.2918L54.2418 59.5ZM57.2 30H38.8C36.5103 30 34.9734 30.0023 33.7899 30.099C32.6414 30.1929 32.0923 30.3604 31.73 30.545C30.7892 31.0243 30.0243 31.7892 29.545 32.73C29.3604 33.0923 29.1929 33.6414 29.099 34.7899C29.0023 35.9734 29 37.5103 29 39.8V46.7C29 48.9897 29.0023 50.5266 29.099 51.7101C29.1929 52.8586 29.3604 53.4077 29.545 53.77C30.0243 54.7108 30.7892 55.4757 31.73 55.955C32.0923 56.1396 32.6414 56.3071 33.7899 56.401C34.9734 56.4977 36.5103 56.5 38.8 56.5H57.2C59.4897 56.5 61.0266 56.4977 62.2101 56.401C63.3586 56.3071 63.9077 56.1396 64.27 55.955C65.2108 55.4757 65.9757 54.7108 66.455 53.77C66.6396 53.4077 66.8071 52.8586 66.901 51.7101C66.9977 50.5266 67 48.9897 67 46.7V39.8C67 37.5103 66.9977 35.9734 66.901 34.7899C66.8071 33.6414 66.6396 33.0923 66.455 32.73C65.9757 31.7892 65.2108 31.0243 64.27 30.545C63.9077 30.3604 63.3586 30.1929 62.2101 30.099C61.0266 30.0023 59.4897 30 57.2 30ZM51.2082 59.5H44.7918L43.7418 66.5H52.2582L51.2082 59.5Z" fill="white"/>
</svg>
