<svg width="96" height="96" viewBox="0 0 96 96" fill="none" xmlns="http://www.w3.org/2000/svg">
<rect width="96" height="96" rx="24" fill="#0077FF"/>
<path fill-rule="evenodd" clip-rule="evenodd" d="M27 33.5C27 29.9102 29.9101 27 33.5 27H63.5C67.0899 27 70 29.9101 70 33.5V53.5C70 57.0898 67.0899 60 63.5 60H54.8213C53.9979 60 53.2007 60.2904 52.5702 60.82L43.108 68.7683C41.4815 70.1345 39 68.9782 39 66.854V60H33.5C29.9101 60 27 57.0899 27 53.5V33.5ZM33.5 30C31.567 30 30 31.567 30 33.5V53.5C30 55.433 31.567 57 33.5 57H39.5C40.8807 57 42 58.1193 42 59.5V65.781L50.6406 58.5229C51.8116 57.5393 53.292 57 54.8213 57H63.5C65.433 57 67 55.433 67 53.5V33.5C67 31.567 65.433 30 63.5 30H33.5Z" fill="white"/>
</svg>
