<svg width="96" height="96" viewBox="0 0 96 96" fill="none" xmlns="http://www.w3.org/2000/svg">
<rect width="96" height="96" rx="24" fill="#0077FF"/>
<path d="M50.7984 24.2313C51.5547 24.4056 52.2352 24.6875 52.8932 25.099C53.5245 25.4938 54.0215 25.9102 54.9894 26.869L64.9319 36.8106C66.0342 37.9128 66.4799 38.4334 66.901 39.1068C67.3125 39.7648 67.5944 40.4453 67.7687 41.2016C67.9471 41.9756 68 42.6588 68 44.2176V57.9625C68 61.8466 67.6441 63.6894 66.6206 65.6032C65.6964 67.3313 64.3313 68.6964 62.6032 69.6206C60.6894 70.6441 58.8466 71 54.9625 71H42.0375C38.1534 71 36.3106 70.6441 34.3968 69.6206C32.6687 68.6964 31.3036 67.3313 30.3794 65.6032C29.3558 63.6894 29 61.8466 29 57.9625V35.6319C29 33.1405 29.4454 31.1432 30.3794 29.3968C31.3036 27.6687 32.6687 26.3036 34.3968 25.3794C36.1432 24.4454 38.1405 24 40.6319 24H47.7824C49.3412 24 50.0244 24.0529 50.7984 24.2313ZM48.0258 27.0004L40.6319 27C38.6103 27 37.0967 27.3375 35.8116 28.0248C34.6063 28.6694 33.6694 29.6063 33.0248 30.8116C32.3375 32.0967 32 33.6103 32 35.6319V57.9625C32 61.3937 32.2655 62.7686 33.0248 64.1884C33.6694 65.3937 34.6063 66.3306 35.8116 66.9752C37.2314 67.7345 38.6063 68 42.0375 68H54.9625C58.3937 68 59.7686 67.7345 61.1884 66.9752C62.3937 66.3306 63.3306 65.3937 63.9752 64.1884C64.7345 62.7686 65 61.3937 65 57.9625V44.2176C65 43.6566 64.9936 43.2455 64.9777 42.9201C64.8277 42.9727 64.667 43 64.5 43H53.5C51.0147 43 49 40.9853 49 38.5V27.5C49 27.333 49.0273 27.1723 49.0777 27.0223C48.8035 27.0088 48.4653 27.0022 48.0258 27.0004ZM51.9999 28.1675L52 38.5C52 39.3284 52.6716 40 53.5 40L63.8334 40.0011C63.6012 39.7355 63.2849 39.4063 62.8106 38.9319L53.0681 29.1894C52.5943 28.7156 52.2653 28.3995 51.9999 28.1675Z" fill="white"/>
</svg>
