<svg width="96" height="96" viewBox="0 0 96 96" fill="none" xmlns="http://www.w3.org/2000/svg">
<rect width="96" height="96" rx="24" fill="#0077FF"/>
<path fill-rule="evenodd" clip-rule="evenodd" d="M45.5 29C36.3873 29 29 36.3873 29 45.5C29 54.6127 36.3873 62 45.5 62C49.5086 62 53.1833 60.5705 56.0422 58.1936L65.441 67.5623C66.0277 68.1472 66.9775 68.1457 67.5623 67.5589C68.1472 66.9722 68.1456 66.0225 67.5589 65.4376L58.1662 56.0749C60.5596 53.2114 62 49.5239 62 45.5C62 36.3873 54.6127 29 45.5 29ZM32 45.5C32 38.0442 38.0442 32 45.5 32C52.9558 32 59 38.0442 59 45.5C59 52.9558 52.9558 59 45.5 59C38.0442 59 32 52.9558 32 45.5Z" fill="white"/>
</svg>
