<svg width="96" height="96" viewBox="0 0 96 96" fill="none" xmlns="http://www.w3.org/2000/svg">
<rect width="96" height="96" rx="24" fill="#0077FF"/>
<path d="M45.5 61C44.6716 61 44 61.6716 44 62.5C44 63.3284 44.6716 64 45.5 64H50.5C51.3284 64 52 63.3284 52 62.5C52 61.6716 51.3284 61 50.5 61H45.5Z" fill="white"/>
<path fill-rule="evenodd" clip-rule="evenodd" d="M31 36.8C31 32.3196 31 30.0794 31.8719 28.3681C32.6389 26.8628 33.8628 25.6389 35.3681 24.8719C37.0794 24 39.3196 24 43.8 24H52.2C56.6804 24 58.9206 24 60.6319 24.8719C62.1372 25.6389 63.3611 26.8628 64.1281 28.3681C65 30.0794 65 32.3196 65 36.8V59.2C65 63.6804 65 65.9206 64.1281 67.6319C63.3611 69.1372 62.1372 70.3611 60.6319 71.1281C58.9206 72 56.6804 72 52.2 72H43.8C39.3196 72 37.0794 72 35.3681 71.1281C33.8628 70.3611 32.6389 69.1372 31.8719 67.6319C31 65.9206 31 63.6804 31 59.2V36.8ZM43.8 27H52.2C54.4897 27 56.0266 27.0023 57.2101 27.099C58.3586 27.1929 58.9077 27.3604 59.27 27.545C60.2108 28.0243 60.9757 28.7892 61.455 29.73C61.6396 30.0923 61.8071 30.6414 61.901 31.7899C61.9977 32.9734 62 34.5103 62 36.8V59.2C62 61.4897 61.9977 63.0266 61.901 64.2101C61.8071 65.3586 61.6396 65.9077 61.455 66.27C60.9757 67.2108 60.2108 67.9757 59.27 68.455C58.9077 68.6396 58.3586 68.8071 57.2101 68.901C56.0266 68.9977 54.4897 69 52.2 69H43.8C41.5103 69 39.9734 68.9977 38.7899 68.901C37.6414 68.8071 37.0923 68.6396 36.73 68.455C35.7892 67.9757 35.0243 67.2108 34.545 66.27C34.3604 65.9077 34.1929 65.3586 34.099 64.2101C34.0023 63.0266 34 61.4897 34 59.2V36.8C34 34.5103 34.0023 32.9734 34.099 31.7899C34.1929 30.6414 34.3604 30.0923 34.545 29.73C35.0243 28.7892 35.7892 28.0243 36.73 27.545C37.0923 27.3604 37.6414 27.1929 38.7899 27.099C39.9734 27.0023 41.5103 27 43.8 27Z" fill="white"/>
</svg>
