<svg width="96" height="96" viewBox="0 0 96 96" fill="none" xmlns="http://www.w3.org/2000/svg">
<rect width="96" height="96" rx="24" fill="#0077FF"/>
<path d="M59.5 52C65.1089 52 70 54.6986 70 60C70 62.625 68.1667 64 66 64H57.5C56.6716 64 56 63.3284 56 62.5C56 61.6716 56.6716 61 57.5 61H66C66.6667 61 67 60.75 67 60C67 56.8359 63.6724 55 59.5 55C58.7894 55 58.0181 55.0698 57.2744 55.2082C56.46 55.3597 55.6769 54.8223 55.5253 54.0079C55.3738 53.1934 55.9111 52.4103 56.7256 52.2588C57.6521 52.0864 58.6071 52 59.5 52ZM40.5 50C47.8559 50 54 52.8357 54 59C54 62.0784 52.0784 64 49.5 64H31.5C28.8138 64 27 62.5893 27 59.5C27 52.9548 33.0651 50 40.5 50ZM40.5 53C34.5139 53 30 55.1991 30 59.5C30 60.7441 30.3291 61 31.5 61H49.5C50.4216 61 51 60.4216 51 59C51 55.1258 46.3941 53 40.5 53ZM59 36C62.5899 36 65.5 38.9101 65.5 42.5C65.5 46.0899 62.5899 49 59 49C55.4101 49 52.5 46.0899 52.5 42.5C52.5 38.9101 55.4101 36 59 36ZM40.5 32C44.6421 32 48 35.3579 48 39.5C48 43.6421 44.6421 47 40.5 47C36.3579 47 33 43.6421 33 39.5C33 35.3579 36.3579 32 40.5 32ZM59 39C57.067 39 55.5 40.567 55.5 42.5C55.5 44.433 57.067 46 59 46C60.933 46 62.5 44.433 62.5 42.5C62.5 40.567 60.933 39 59 39ZM40.5 35C38.0147 35 36 37.0147 36 39.5C36 41.9853 38.0147 44 40.5 44C42.9853 44 45 41.9853 45 39.5C45 37.0147 42.9853 35 40.5 35Z" fill="white"/>
</svg>
