<svg width="96" height="96" viewBox="0 0 96 96" fill="none" xmlns="http://www.w3.org/2000/svg">
<rect width="96" height="96" rx="24" fill="#0077FF"/>
<path fill-rule="evenodd" clip-rule="evenodd" d="M30.5003 38C30.5003 33.5817 34.082 30 38.5003 30C42.9186 30 46.5003 33.5817 46.5003 38V47C46.5003 51.4183 42.9186 55 38.5003 55C34.082 55 30.5003 51.4183 30.5003 47V38ZM43.5003 38V47C43.5003 49.7614 41.2617 52 38.5003 52C35.7389 52 33.5003 49.7614 33.5003 47V38C33.5003 35.2386 35.7389 33 38.5003 33C41.2617 33 43.5003 35.2386 43.5003 38Z" fill="white"/>
<path fill-rule="evenodd" clip-rule="evenodd" d="M52.0004 41H54.3725C56.4511 41 57.634 41.2284 58.8688 41.8888C60.0435 42.517 60.9833 43.4568 61.6115 44.6315C61.9207 45.2098 62.1353 45.7766 62.276 46.4294L64.9223 44.9649C66.6917 43.9854 68.9629 44.5526 69.9951 46.2318C70.326 46.7701 70.5003 47.3822 70.5003 48.0054V55.9945C70.5003 57.9386 68.8397 59.5145 66.7912 59.5145C66.1345 59.5145 65.4896 59.3491 64.9223 59.035L62.276 57.5705C62.1353 58.2234 61.9208 58.7902 61.6115 59.3685C60.9833 60.5432 60.0435 61.483 58.8688 62.1112C57.634 62.7716 56.4511 63 54.3725 63H52.0003C51.1719 63 50.5004 62.3284 50.5004 61.5C50.5004 60.6716 51.1719 60 52.0004 60L52.0112 60H54.3725C56.1556 60 56.8022 59.8144 57.454 59.4658C58.1059 59.1172 58.6174 58.6056 58.966 57.9537C59.3147 57.3019 59.5003 56.6553 59.5003 54.8723V49.1277C59.5003 47.3447 59.3147 46.6981 58.966 46.0463C58.6174 45.3944 58.1059 44.8829 57.454 44.5343C56.8022 44.1856 56.1556 44 54.3725 44H52.0058L52.0004 44C51.1719 44 50.5004 43.3284 50.5004 42.5C50.5004 41.6716 51.172 41 52.0004 41ZM62.5709 54.305L62.5003 54.2642V49.7358L62.5709 49.695L66.3749 47.5898C66.5621 47.4862 66.7891 47.4572 67.0083 47.5119C67.2268 47.5665 67.3664 47.6843 67.4393 47.8028C67.484 47.8755 67.5003 47.9449 67.5003 48.0054V55.9945C67.5003 56.0859 67.4664 56.1959 67.3488 56.3075C67.2285 56.4217 67.038 56.5145 66.7912 56.5145C66.636 56.5145 66.4919 56.4749 66.3753 56.4104L62.5709 54.305Z" fill="white"/>
<path d="M25.8115 51.8583C26.5474 51.4779 27.4524 51.7661 27.8328 52.502C29.8297 56.3649 33.8585 59 38.5003 59C43.1421 59 47.1709 56.3649 49.1678 52.502C49.5483 51.7661 50.4532 51.4779 51.1891 51.8583C51.925 52.2387 52.2132 53.1437 51.8328 53.8796C49.5583 58.2796 45.1657 61.413 40.0003 61.9259V65C40.0003 65.8284 39.3287 66.5 38.5003 66.5C37.6719 66.5 37.0003 65.8284 37.0003 65V61.9259C31.8349 61.413 27.4424 58.2796 25.1678 53.8796C24.7874 53.1437 25.0756 52.2387 25.8115 51.8583Z" fill="white"/>
</svg>
