<svg width="96" height="96" viewBox="0 0 96 96" fill="none" xmlns="http://www.w3.org/2000/svg">
<rect width="96" height="96" rx="24" fill="#0077FF"/>
<path d="M39.5 59C38.6716 59 38 59.6716 38 60.5C38 61.3284 38.6716 62 39.5 62H56.5C57.3284 62 58 61.3284 58 60.5C58 59.6716 57.3284 59 56.5 59H39.5Z" fill="white"/>
<path fill-rule="evenodd" clip-rule="evenodd" d="M36.8 68C32.3196 68 30.0794 68 28.3681 67.1281C26.8628 66.3611 25.6389 65.1372 24.8719 63.6319C24 61.9206 24 59.6804 24 55.2V40.8C24 36.3196 24 34.0794 24.8719 32.3681C25.6389 30.8628 26.8628 29.6389 28.3681 28.8719C30.0794 28 32.3196 28 36.8 28L59.2 28C63.6804 28 65.9206 28 67.6319 28.8719C69.1372 29.6389 70.3611 30.8628 71.1281 32.3681C72 34.0794 72 36.3196 72 40.8V55.2C72 59.6804 72 61.9206 71.1281 63.6319C70.3611 65.1372 69.1372 66.3611 67.6319 67.1281C65.9206 68 63.6804 68 59.2 68H36.8ZM27 55.2L27 40.8C27 38.5103 27.0023 36.9734 27.099 35.7899C27.1929 34.6414 27.3604 34.0923 27.545 33.7301C28.0243 32.7892 28.7892 32.0243 29.73 31.545C30.0923 31.3604 30.6414 31.1929 31.7899 31.099C32.9734 31.0023 34.5103 31 36.8 31L59.2 31C61.4897 31 63.0266 31.0023 64.2101 31.099C65.3586 31.1929 65.9077 31.3604 66.27 31.545C67.2108 32.0243 67.9757 32.7892 68.455 33.73C68.6396 34.0923 68.8071 34.6414 68.901 35.7899C68.9977 36.9734 69 38.5103 69 40.8V55.2C69 57.4897 68.9977 59.0266 68.901 60.2101C68.8071 61.3586 68.6396 61.9077 68.455 62.27C67.9757 63.2108 67.2108 63.9757 66.27 64.455C65.9077 64.6396 65.3586 64.8071 64.2101 64.901C63.0266 64.9977 61.4897 65 59.2 65H36.8C34.5103 65 32.9734 64.9977 31.7899 64.901C30.6414 64.8071 30.0923 64.6396 29.73 64.455C28.7892 63.9757 28.0243 63.2108 27.545 62.27C27.3604 61.9077 27.1929 61.3586 27.099 60.2101C27.0023 59.0266 27 57.4897 27 55.2Z" fill="white"/>
</svg>
