<svg width="96" height="96" viewBox="0 0 96 96" fill="none" xmlns="http://www.w3.org/2000/svg">
<rect width="96" height="96" rx="24" fill="#EDF0F3"/>
<path d="M48 24C61.2548 24 72 34.7452 72 48C72 61.2548 61.2548 72 48 72C34.7452 72 24 61.2548 24 48C24 34.7452 34.7452 24 48 24ZM48 27C36.402 27 27 36.402 27 48C27 59.598 36.402 69 48 69C59.598 69 69 59.598 69 48C69 36.402 59.598 27 48 27ZM56.9393 40.9393C57.5251 40.3536 58.4749 40.3536 59.0607 40.9393C59.6464 41.5251 59.6464 42.4749 59.0607 43.0607L45.0607 57.0607C44.4749 57.6464 43.5251 57.6464 42.9393 57.0607L35.9393 50.0607C35.3536 49.4749 35.3536 48.5251 35.9393 47.9393C36.5251 47.3536 37.4749 47.3536 38.0607 47.9393L44 53.8787L56.9393 40.9393Z" fill="#050B15"/>
</svg>
